PathFileType	4	(X/Y/Z)	33_2_63_p1_0-187.trc
DataRate	CameraRate	NumFrames	NumMarkers	Units	OrigDataRate	OrigDataStartFrame	OrigNumFrames
60.0	60.0	6	27	m	60.0	117	188
Frame#	Time	RHip			RKnee			RAnkle			RBigToe			RSmallToe			RHeel			LHip			LKnee			LAnkle			LBigToe			LSmallToe			LHeel			Neck			Head			Nose			RShoulder			RElbow			RWrist			RThumb			RIndex			RPinky			LShoulder			LElbow			LWrist			LThumb			LIndex			LPinky			
		X1	Y1	Z1	X2	Y2	Z2	X3	Y3	Z3	X4	Y4	Z4	X5	Y5	Z5	X6	Y6	Z6	X7	Y7	Z7	X8	Y8	Z8	X9	Y9	Z9	X10	Y10	Z10	X11	Y11	Z11	X12	Y12	Z12	X13	Y13	Z13	X14	Y14	Z14	X15	Y15	Z15	X16	Y16	Z16	X17	Y17	Z17	X18	Y18	Z18	X19	Y19	Z19	X20	Y20	Z20	X21	Y21	Z21	X22	Y22	Z22	X23	Y23	Z23	X24	Y24	Z24	X25	Y25	Z25	X26	Y26	Z26	X27	Y27	Z27	
117	1.95	0.32029780026900784	0.22198547752035405	0.19856389211575032	0.27239921159812047	0.4777753219442644	0.560509571619846	0.244296274540506	0.7247167214396311	0.9143664309530978	0.26855761355501284	0.6223519568887832	1.0014082085960712	0.323892566789545	0.6288163463072213	0.9894419925700326	0.21400823957459195	0.8375935496816945	0.9521503025474056	0.11832662091520872	0.19859150190668418	0.20873900264567657	0.13191349789972512	0.447659726497492	0.5512039455592407	0.0977188911938539	0.790087980471722	0.9359102091080487	0.10576863234984857	0.5611978148244458	0.9947347838104504	0.05076284092539965	0.6303592387926763	0.9904923864661775	0.09519066714179271	0.8542235942383802	0.9648006946000228	0.23024005863892805	-0.07505285110958353	-0.27879213217591664	0.2456697347038339	-0.2433675972558986	-0.48015891580070597	0.2461200193739421	-0.2599758809420654	-0.33476086214471507	0.39774348177127283	0.010413938209753134	-0.21465736842775246	0.3860486181903097	0.26119482218140533	-0.06332549471162185	0.16729915979715662	0.6403006154973874	0.03343267217078943	0.2890802929985083	0.5477760512223672	0.1555497741325882	0.17942964368358869	0.736719302221454	0.11442630374218675	0.16709114913971118	0.8271090284742086	0.10138711429451193	0.08520473138425572	-0.027368327315438274	-0.2044010912347621	0.014152090312693209	0.2107224471985131	-0.026031309321486413	0.1831847817945169	0.46597533746783265	0.08878159810188523	0.07654735269753564	0.3915077690639246	0.10988592947855012	0.12367153113278936	0.5243231732789648	0.06814386183316931	0.20394876799930067	0.4127700002173965	0.09360609203538373
118	1.9666666666666666	0.3202579980963374	0.2218852705219538	0.19858443717605487	0.27241382121439445	0.4776895277582037	0.560357298467616	0.24429238434771394	0.7248083188829426	0.9142824729481457	0.2685499239531434	0.6221112787835363	1.0018213608204138	0.3261197342441926	0.6414015039676378	0.9905199485870533	0.21505896770255442	0.8351767608371754	0.9484407922979441	0.1183296041864378	0.1984272715068774	0.20893012065805344	0.134147446427967	0.46045022801193425	0.5503144795158404	0.09772530090206395	0.7901141578964398	0.935825490488461	0.10631343888577484	0.5647028064133782	0.9988045207616497	0.05064771854697812	0.6305162680547685	0.9906072318098762	0.09525597541004928	0.8537437725850046	0.9647384843169486	0.23026113676425283	-0.0751170014007501	-0.2787613663719652	0.2456259161302037	-0.24327455255898373	-0.48009614382473026	0.245987934886067	-0.25997432426608574	-0.3347371764715304	0.39772766882629473	0.01039592570052111	-0.21465100752669722	0.3860823669018296	0.26127432469296247	-0.06321615460717016	0.16727621313097102	0.6404665901680638	0.0330908162818285	0.2890802929985083	0.5477760512223672	0.1555497741325882	0.17942964368358869	0.736719302221454	0.11442630374218675	0.16709114913971118	0.8271090284742086	0.10138711429451193	0.08511268768778281	-0.02865844818694212	-0.20767309740324985	0.01418136233247623	0.21076006265898314	-0.026057211971395697	0.1830976918237874	0.4667203966375877	0.08799360270707078	0.07654735269753564	0.3915077690639246	0.10988592947855012	0.12367153113278936	0.5243231732789648	0.06814386183316931	0.20394876799930067	0.4127700002173965	0.09360609203538373
119	1.9833333333333334	0.3203113205331126	0.2218357556580633	0.19860967394195086	0.27234457049523153	0.4777831130843994	0.5604187008372274	0.24428597241993025	0.7247455955476234	0.9143830131256419	0.26856962085136243	0.6223695136722804	1.0014293273782393	0.3239587356908314	0.6287637112476258	0.9893259679496729	0.21504501924836436	0.8349205773086997	0.9486047123838716	0.11838418122865678	0.19840654132543914	0.20890614463795049	0.13207892417962092	0.44740538793676415	0.5510615339338963	0.09775817144044599	0.7900040096968168	0.9357801028220121	0.10623204720009258	0.5647982756149798	0.9987774325870377	0.05058941823164885	0.6307565370421436	0.9906293010517829	0.09527919079040746	0.8536620063843507	0.9647362866292527	0.23025849915273972	-0.07506026099348953	-0.2787540378327033	0.2456396635440407	-0.2432666157355319	-0.48009892606374366	0.24602112531781825	-0.25985560729899204	-0.3347174119473631	0.39772035540812756	0.010432749172024651	-0.2146429714745373	0.3869161125598323	0.26071425690901895	-0.057022745606423994	0.16767973980074202	0.6405852420192955	0.03817272120966257	0.2890802929985083	0.5477760512223672	0.1555497741325882	0.17942964368358869	0.736719302221454	0.11442630374218675	0.16709114913971118	0.8271090284742086	0.10138711429451193	0.08523191882559032	-0.0274711826151196	-0.20436688811191217	0.0245700491806518	0.2037879651556249	-0.019694735791193164	0.19093095727518347	0.48877794843822664	0.08398562134510132	0.07654735269753564	0.3915077690639246	0.10988592947855012	0.12367153113278936	0.5243231732789648	0.06814386183316931	0.20394876799930067	0.4127700002173965	0.09360609203538373
120	2.0	0.3203036621351507	0.22193824109852384	0.19843988391059453	0.2674746522348422	0.47209228866805036	0.5567440608616028	0.24433727805932287	0.7244423043394792	0.9145332328539173	0.2659728607517867	0.6094097208565278	1.0008093048183704	0.3236539879189455	0.6283397324327099	0.9896887112615688	0.21407680730071554	0.8373436028938175	0.9536650887018637	0.11784878646952204	0.19593924296753337	0.20537530540406626	0.131448240986299	0.44445974603715793	0.5473857569860408	0.09880103453183907	0.7881784802472371	0.9320504837631022	0.10552002149933622	0.5618346579718317	0.9949291274951836	0.045445653058992695	0.645558217645976	0.9887704138019476	0.09572472966155876	0.8562317717281788	0.9697935643002479	0.23024482645954006	-0.07497445207140324	-0.27865227116109786	0.24570184359258954	-0.24331640611182673	-0.4802284890037451	0.2457501467866457	-0.25896195068481065	-0.3319976962117442	0.3977567310979357	0.010400012934573174	-0.2146292235323384	0.38688672889907216	0.2613294256396519	-0.05753180809028078	0.14792656217016828	0.6792759959824459	0.027037239321329294	0.2890802929985083	0.5477760512223672	0.1555497741325882	0.17942964368358869	0.736719302221454	0.11442630374218675	0.16709114913971118	0.8271090284742086	0.10138711429451193	0.08527259986765287	-0.027584047465111422	-0.20430804153051008	0.02447510614487908	0.20293579816494473	-0.01946463760171335	0.1912162583418446	0.48864089953519857	0.08331005779882922	0.07654735269753564	0.3915077690639246	0.10988592947855012	0.12367153113278936	0.5243231732789648	0.06814386183316931	0.20394876799930067	0.4127700002173965	0.09360609203538373
121	2.0166666666666666	0.32034418692404215	0.22176417334810625	0.1984657332894528	0.2672382213413426	0.4712510558706979	0.5529718881528841	0.24439037382267575	0.7244142277411068	0.9147240482886259	0.26604920216864525	0.6095826599402572	1.0006292207941097	0.32365177292652325	0.6290531104066828	0.9897647266748576	0.21411325224683253	0.8372055325966951	0.9540447777497953	0.11834372255503284	0.19816793580018688	0.20859232932318364	0.13145987684420188	0.44431473160122165	0.5473319364269197	0.09881722830936246	0.7879709899122874	0.9324033740453138	0.10610369448745478	0.5652244714952315	0.9989171371685315	0.05094232258143922	0.6346590284790282	0.9946501109347786	0.09574074448965247	0.8556100853704764	0.9698372608265445	0.2302256962423361	-0.07499622162571519	-0.278700520558725	0.24571385360052928	-0.24325652493598843	-0.4801750976962674	0.24573948818413982	-0.2590233618842947	-0.33200307918433214	0.39773015034093484	0.01038277117521969	-0.21461284300719943	0.3868489459051276	0.26115564617311643	-0.05741343223384565	0.1478340117972833	0.6794352816623871	0.027458092924522955	0.2890802929985083	0.5477760512223672	0.1555497741325882	0.17942964368358869	0.736719302221454	0.11442630374218675	0.16709114913971118	0.8271090284742086	0.10138711429451193	0.08526749501994128	-0.02749382941072019	-0.2043618340651721	0.024443248130452986	0.20294519797358562	-0.01952030130920089	0.19076995043757455	0.4860891459108065	0.07866520060978799	0.07654735269753564	0.3915077690639246	0.10988592947855012	0.12367153113278936	0.5243231732789648	0.06814386183316931	0.20394876799930067	0.4127700002173965	0.09360609203538373
122	2.033333333333333	0.320386425817766	0.221706190823436	0.19847284558542364	0.26647781847821655	0.4728898035534098	0.5568136543621418	0.2436595350774258	0.7207521188564172	0.910333741888408	0.2661149090562268	0.6090956183353644	1.0006003238662198	0.32373030194424407	0.6285317028159363	0.9896322259480012	0.21514544911895164	0.8347119400383476	0.950238876840757	0.11788383613888181	0.19597568990503283	0.2051917955880827	0.1314714088366507	0.4442498304206857	0.5474125273909753	0.09881978015005244	0.7881914598276456	0.9320886021242762	0.1060043008168109	0.5653337680360045	0.9988301378850158	0.04469161187292004	0.6515055717757068	0.9963920316102226	0.09584049238648149	0.8560702513995696	0.9696088330119406	0.23021957851691335	-0.07489980516026137	-0.2787615268022881	0.24578878938786317	-0.24333453009329276	-0.48023741571086853	0.2457171274171951	-0.25881195794544454	-0.3319979596973347	0.39770894861759754	0.010413274190092607	-0.21461081738306595	0.38673957004896187	0.26116031089951036	-0.05730407647178919	0.1282630056608276	0.7172828254016568	0.021718267097027153	0.2890802929985083	0.5477760512223672	0.1555497741325882	0.17942964368358869	0.736719302221454	0.11442630374218675	0.16709114913971118	0.8271090284742086	0.10138711429451193	0.08161099826893756	-0.029988994289230367	-0.20351461774370067	0.024475791307570355	0.2033791086908639	-0.019501323535993834	0.1950813126448449	0.46102770519490566	0.08342597104466856	0.07654735269753564	0.3915077690639246	0.10988592947855012	0.12367153113278936	0.5243231732789648	0.06814386183316931	0.20394876799930067	0.4127700002173965	0.09360609203538373
